<?xml version="1.0" standalone="no"?>
<!DOCTYPE svg PUBLIC "-//W3C//DTD SVG 20010904//EN"
 "http://www.w3.org/TR/2001/REC-SVG-20010904/DTD/svg10.dtd">
<svg version="1.0" xmlns="http://www.w3.org/2000/svg"
 width="150.000000pt" height="150.000000pt" viewBox="0 0 150.000000 150.000000"
 preserveAspectRatio="xMidYMid meet">
<metadata>
Created by potrace 1.14, written by Peter Selinger 2001-2017
</metadata>
<g transform="translate(0.000000,150.000000) scale(0.100000,-0.100000)"
fill="#000000" stroke="none">
<path d="M783 1424 c-25 -28 -40 -75 -38 -115 1 -18 -6 -30 -27 -42 -15 -9
-28 -12 -28 -6 0 6 -4 7 -10 4 -5 -3 -10 0 -10 8 0 7 -11 20 -25 27 -14 7 -25
17 -25 21 0 4 -20 13 -45 20 -25 7 -45 16 -45 20 0 9 -107 1 -129 -10 -10 -6
-21 -7 -25 -4 -3 3 -6 1 -6 -5 0 -7 -6 -12 -12 -12 -15 -1 -61 -40 -71 -60 -4
-8 -17 -31 -28 -50 -12 -19 -23 -42 -24 -50 -2 -8 -4 -16 -5 -17 -2 -2 -4 -7
-5 -13 -1 -5 -3 -11 -4 -12 -2 -2 -5 -14 -7 -28 -3 -13 -9 -29 -14 -34 -4 -4
-6 -15 -3 -22 3 -8 0 -14 -6 -14 -6 0 -10 -3 -9 -7 1 -5 -2 -20 -6 -34 -4 -14
-9 -34 -11 -45 -2 -10 -4 -19 -5 -19 -15 0 -20 -367 -6 -400 5 -11 10 -30 11
-42 0 -12 4 -25 8 -29 4 -4 7 -13 7 -20 0 -7 5 -25 11 -41 6 -15 10 -29 10
-31 -3 -7 30 -75 43 -87 9 -9 13 -33 12 -70 -1 -30 2 -55 6 -55 11 0 6 -23 -7
-32 -6 -5 -5 -8 3 -8 6 0 12 -8 12 -18 0 -29 12 -34 27 -12 8 12 11 29 8 42
-10 30 -12 159 -3 165 5 2 8 0 8 -5 0 -5 18 -9 41 -10 22 -1 45 -4 49 -7 5 -3
11 1 13 7 3 7 6 9 6 3 1 -6 33 -10 76 -10 41 1 75 -1 75 -5 0 -3 14 -5 30 -5
17 0 30 4 30 8 0 4 10 3 21 -4 17 -9 20 -8 14 2 -6 8 -4 10 4 4 16 -9 71 -13
71 -5 0 4 7 7 15 7 8 0 15 -5 15 -11 0 -7 3 -8 8 -1 4 6 25 11 47 12 22 0 60
4 85 7 82 12 85 12 84 -6 -1 -10 1 -18 5 -18 3 0 6 -13 6 -30 0 -16 -3 -30 -7
-30 -4 0 -4 -10 1 -22 5 -13 8 -36 6 -53 -2 -35 14 -65 31 -58 12 4 12 95 0
194 -6 48 8 63 57 61 9 0 17 3 17 8 0 5 9 12 21 15 26 9 73 55 92 91 17 34 12
110 -9 132 -19 18 -18 29 5 49 11 9 18 20 16 24 -3 4 2 10 11 13 13 5 15 2 11
-14 -3 -11 -1 -23 4 -26 5 -3 5 -13 -1 -23 -5 -10 -6 -22 -2 -25 4 -4 7 -40 8
-79 4 -202 10 -242 38 -231 8 3 12 18 10 42 -2 20 -4 37 -4 37 -1 0 -3 50 -3
112 -1 61 -5 115 -9 119 -4 4 -3 13 3 21 6 7 7 13 2 13 -5 0 -9 17 -10 38 -1
73 -3 81 -23 100 -13 12 -38 19 -73 21 -28 2 -70 5 -92 7 -51 6 -54 6 -87 1
-16 -2 -28 0 -28 5 0 5 -8 4 -18 -1 -13 -7 -23 -6 -32 2 -10 9 -11 9 -6 0 5
-9 2 -11 -8 -7 -9 3 -17 12 -17 20 -1 8 -2 23 -3 33 0 11 -4 23 -8 27 -4 4 -3
13 3 21 6 7 7 13 2 13 -5 0 -9 21 -10 48 -1 76 -11 297 -13 297 -1 0 -4 23 -5
50 -4 62 -14 115 -26 136 -4 9 -5 19 -2 23 6 5 -5 8 -23 5 -4 0 -10 4 -13 9
-4 6 -16 0 -28 -14z m40 -81 c-3 -7 -1 -13 3 -13 5 0 9 -28 9 -63 -1 -34 2
-66 6 -72 8 -12 5 -67 -4 -82 -4 -6 -3 -14 1 -17 5 -3 10 -29 11 -58 2 -79 17
-266 24 -302 1 -6 5 -13 9 -16 4 -3 -42 -6 -103 -6 l-109 0 2 33 c1 18 6 33
11 33 4 0 6 4 3 9 -7 11 15 111 24 111 3 0 6 8 7 18 0 9 4 28 7 42 11 41 8
178 -4 210 -1 3 -2 8 -1 13 0 4 -3 7 -7 7 -22 0 -5 32 24 46 37 18 44 31 51
94 5 48 24 71 34 42 3 -9 4 -23 2 -29z m-173 -103 c0 -5 -2 -10 -4 -10 -3 0
-8 5 -11 10 -3 6 -1 10 4 10 6 0 11 -4 11 -10z m323 -517 c4 -3 44 -7 89 -7
46 -1 89 -5 96 -9 7 -5 12 -4 12 2 0 6 11 6 29 1 16 -4 33 -5 37 -2 4 4 0 -6
-10 -23 -10 -16 -26 -37 -37 -46 -10 -9 -15 -20 -11 -24 4 -4 -18 5 -48 21
-30 15 -58 29 -62 30 -5 1 -10 3 -13 4 -3 1 -9 4 -15 5 -5 1 -11 4 -12 5 -4 3
-46 10 -76 11 -12 1 -25 6 -28 10 -3 5 -10 7 -15 4 -5 -4 -9 -1 -9 4 0 15 30
14 30 -1 0 -7 5 -5 11 5 10 18 21 21 32 10z m-183 -54 c0 -17 -81 -21 -87 -4
-2 6 16 10 42 11 25 0 45 -3 45 -7z"/>
</g>
</svg>
